<mxfile host="65bd71144e">
    <diagram id="Dkt1tuU8weAfVZM58987" name="Page-1">
        <mxGraphModel dx="916" dy="760" grid="0" gridSize="10" guides="1" tooltips="1" connect="1" arrows="1" fold="1" page="1" pageScale="1" pageWidth="1100" pageHeight="850" background="#333333" math="0" shadow="0">
            <root>
                <mxCell id="0"/>
                <mxCell id="1" parent="0"/>
                <mxCell id="12" style="edgeStyle=orthogonalEdgeStyle;html=1;" parent="1" source="3" target="7" edge="1">
                    <mxGeometry relative="1" as="geometry"/>
                </mxCell>
                <mxCell id="13" style="edgeStyle=orthogonalEdgeStyle;html=1;" parent="1" source="3" target="9" edge="1">
                    <mxGeometry relative="1" as="geometry"/>
                </mxCell>
                <mxCell id="3" value="" style="rounded=1;whiteSpace=wrap;html=1;" parent="1" vertex="1">
                    <mxGeometry x="110" y="349" width="200" height="60" as="geometry"/>
                </mxCell>
                <mxCell id="7" value="" style="rounded=1;whiteSpace=wrap;html=1;" parent="1" vertex="1">
                    <mxGeometry x="110" y="441" width="60" height="60" as="geometry"/>
                </mxCell>
                <mxCell id="9" value="" style="rounded=1;whiteSpace=wrap;html=1;" parent="1" vertex="1">
                    <mxGeometry x="250" y="441" width="60" height="60" as="geometry"/>
                </mxCell>
                <mxCell id="15" style="edgeStyle=orthogonalEdgeStyle;html=1;" parent="1" source="17" target="18" edge="1">
                    <mxGeometry relative="1" as="geometry"/>
                </mxCell>
                <mxCell id="16" style="edgeStyle=orthogonalEdgeStyle;html=1;" parent="1" source="17" target="20" edge="1">
                    <mxGeometry relative="1" as="geometry"/>
                </mxCell>
                <mxCell id="17" value="" style="rounded=1;whiteSpace=wrap;html=1;" parent="1" vertex="1">
                    <mxGeometry x="335" y="349" width="200" height="60" as="geometry"/>
                </mxCell>
                <mxCell id="18" value="" style="rounded=1;whiteSpace=wrap;html=1;" parent="1" vertex="1">
                    <mxGeometry x="335" y="441" width="60" height="60" as="geometry"/>
                </mxCell>
                <mxCell id="20" value="" style="rounded=1;whiteSpace=wrap;html=1;" parent="1" vertex="1">
                    <mxGeometry x="475" y="441" width="60" height="60" as="geometry"/>
                </mxCell>
                <mxCell id="21" style="edgeStyle=orthogonalEdgeStyle;html=1;" parent="1" source="23" target="24" edge="1">
                    <mxGeometry relative="1" as="geometry"/>
                </mxCell>
                <mxCell id="23" value="" style="rounded=1;whiteSpace=wrap;html=1;" parent="1" vertex="1">
                    <mxGeometry x="563" y="349" width="200" height="60" as="geometry"/>
                </mxCell>
                <mxCell id="24" value="" style="rounded=1;whiteSpace=wrap;html=1;" parent="1" vertex="1">
                    <mxGeometry x="633" y="441" width="60" height="60" as="geometry"/>
                </mxCell>
                <mxCell id="26" value="" style="rounded=1;whiteSpace=wrap;html=1;" parent="1" vertex="1">
                    <mxGeometry x="791" y="349" width="200" height="60" as="geometry"/>
                </mxCell>
                <mxCell id="28" value="&lt;font color=&quot;#000000&quot;&gt;Bucket&lt;/font&gt;" style="rounded=1;whiteSpace=wrap;html=1;arcSize=50;strokeColor=#2D7600;fontColor=#ffffff;fillColor=#00FF00;" parent="1" vertex="1">
                    <mxGeometry x="184.5" y="367.5" width="51" height="23" as="geometry"/>
                </mxCell>
                <mxCell id="29" value="&lt;font color=&quot;#000000&quot;&gt;Story&lt;/font&gt;" style="rounded=1;whiteSpace=wrap;html=1;arcSize=50;strokeColor=#2D7600;fontColor=#ffffff;fillColor=#00FF00;" parent="1" vertex="1">
                    <mxGeometry x="114.5" y="459.5" width="51" height="23" as="geometry"/>
                </mxCell>
                <mxCell id="31" value="&lt;font color=&quot;#000000&quot;&gt;Bug&lt;/font&gt;" style="rounded=1;whiteSpace=wrap;html=1;arcSize=50;strokeColor=#6F0000;fontColor=#ffffff;fillColor=#FF0000;" parent="1" vertex="1">
                    <mxGeometry x="254.5" y="459.5" width="51" height="23" as="geometry"/>
                </mxCell>
                <mxCell id="32" value="&lt;font color=&quot;#000000&quot;&gt;Task&lt;/font&gt;" style="rounded=1;whiteSpace=wrap;html=1;arcSize=50;strokeColor=#2D7600;fontColor=#ffffff;fillColor=#00FF00;" parent="1" vertex="1">
                    <mxGeometry x="339.5" y="459.5" width="51" height="23" as="geometry"/>
                </mxCell>
                <mxCell id="33" value="&lt;font color=&quot;#000000&quot;&gt;Bug&lt;/font&gt;" style="rounded=1;whiteSpace=wrap;html=1;arcSize=50;strokeColor=#6F0000;fontColor=#ffffff;fillColor=#FF0000;" parent="1" vertex="1">
                    <mxGeometry x="479.5" y="459.5" width="51" height="23" as="geometry"/>
                </mxCell>
                <mxCell id="34" value="&lt;font color=&quot;#000000&quot;&gt;Story&lt;/font&gt;" style="rounded=1;whiteSpace=wrap;html=1;arcSize=50;strokeColor=#2D7600;fontColor=#ffffff;fillColor=#00FF00;" parent="1" vertex="1">
                    <mxGeometry x="411" y="367.5" width="51" height="23" as="geometry"/>
                </mxCell>
                <mxCell id="35" value="&lt;font color=&quot;#000000&quot;&gt;Bug&lt;/font&gt;" style="rounded=1;whiteSpace=wrap;html=1;arcSize=50;strokeColor=#6F0000;fontColor=#ffffff;fillColor=#FF0000;" parent="1" vertex="1">
                    <mxGeometry x="637.5" y="367.5" width="51" height="23" as="geometry"/>
                </mxCell>
                <mxCell id="36" value="&lt;font color=&quot;#000000&quot;&gt;Task&lt;/font&gt;" style="rounded=1;whiteSpace=wrap;html=1;arcSize=50;strokeColor=#2D7600;fontColor=#ffffff;fillColor=#00FF00;" parent="1" vertex="1">
                    <mxGeometry x="637.5" y="459.5" width="51" height="23" as="geometry"/>
                </mxCell>
                <mxCell id="37" value="&lt;font color=&quot;#000000&quot;&gt;Task&lt;br&gt;&lt;/font&gt;" style="rounded=1;whiteSpace=wrap;html=1;arcSize=50;strokeColor=#2D7600;fontColor=#ffffff;fillColor=#00FF00;" parent="1" vertex="1">
                    <mxGeometry x="867" y="367.5" width="51" height="23" as="geometry"/>
                </mxCell>
                <mxCell id="38" value="&lt;font color=&quot;#000000&quot;&gt;Bucket&lt;/font&gt;" style="rounded=1;whiteSpace=wrap;html=1;arcSize=50;strokeColor=#2D7600;fontColor=#ffffff;fillColor=#00FF00;" vertex="1" parent="1">
                    <mxGeometry x="110" y="149" width="51" height="23" as="geometry"/>
                </mxCell>
                <mxCell id="39" value="&lt;font color=&quot;#000000&quot;&gt;Story&lt;/font&gt;" style="rounded=1;whiteSpace=wrap;html=1;arcSize=50;strokeColor=#2D7600;fontColor=#ffffff;fillColor=#00FF00;" vertex="1" parent="1">
                    <mxGeometry x="110" y="187" width="51" height="23" as="geometry"/>
                </mxCell>
                <mxCell id="40" value="&lt;font color=&quot;#000000&quot;&gt;Task&lt;/font&gt;" style="rounded=1;whiteSpace=wrap;html=1;arcSize=50;strokeColor=#2D7600;fontColor=#ffffff;fillColor=#00FF00;" vertex="1" parent="1">
                    <mxGeometry x="110" y="226" width="51" height="23" as="geometry"/>
                </mxCell>
                <mxCell id="41" value="&lt;font color=&quot;#000000&quot;&gt;Bug&lt;/font&gt;" style="rounded=1;whiteSpace=wrap;html=1;arcSize=50;strokeColor=#6F0000;fontColor=#ffffff;fillColor=#FF0000;" vertex="1" parent="1">
                    <mxGeometry x="110" y="266" width="51" height="23" as="geometry"/>
                </mxCell>
                <mxCell id="44" value="&lt;font color=&quot;#e6e6e6&quot;&gt;Brand new functionality -- New pages, workflows, endpoints, etc.&lt;/font&gt;" style="text;html=1;align=center;verticalAlign=middle;resizable=0;points=[];autosize=1;strokeColor=none;" vertex="1" parent="1">
                    <mxGeometry x="170" y="151.5" width="353" height="18" as="geometry"/>
                </mxCell>
                <mxCell id="45" value="&lt;font color=&quot;#e6e6e6&quot;&gt;Brand new functionality -- New page feature, etc.&lt;/font&gt;" style="text;html=1;align=center;verticalAlign=middle;resizable=0;points=[];autosize=1;strokeColor=none;" vertex="1" parent="1">
                    <mxGeometry x="170" y="189.5" width="269" height="18" as="geometry"/>
                </mxCell>
                <mxCell id="46" value="&lt;font color=&quot;#e6e6e6&quot;&gt;Brand new functionality -- New story tasks, etc.&lt;/font&gt;" style="text;html=1;align=center;verticalAlign=middle;resizable=0;points=[];autosize=1;strokeColor=none;" vertex="1" parent="1">
                    <mxGeometry x="170" y="228.5" width="259" height="18" as="geometry"/>
                </mxCell>
                <mxCell id="47" value="&lt;font color=&quot;#e6e6e6&quot;&gt;Issues that make the product feel broken.&lt;/font&gt;" style="text;html=1;align=center;verticalAlign=middle;resizable=0;points=[];autosize=1;strokeColor=none;" vertex="1" parent="1">
                    <mxGeometry x="170" y="268.5" width="230" height="18" as="geometry"/>
                </mxCell>
            </root>
        </mxGraphModel>
    </diagram>
</mxfile>